<?xml version="1.0" standalone="no"?>
<!DOCTYPE svg PUBLIC "-//W3C//DTD SVG 1.1//EN" "http://www.w3.org/Graphics/SVG/1.1/DTD/svg11.dtd" >
<svg xmlns="http://www.w3.org/2000/svg">
<metadata>Generated by IcoMoon</metadata>
<defs>
<font id="icomoon" horiz-adv-x="1024">
<font-face units-per-em="1024" ascent="960" descent="-64" />
<missing-glyph horiz-adv-x="1024" />
<glyph unicode="&#x20;" horiz-adv-x="512" d="" />
<glyph unicode="&#xe900;" glyph-name="24" d="M972.8 110.080c-101.859 54.016-179.993 84.304-249.545 95.916l7.199 9.896c3.414 3.414 5.12 8.534 3.414 13.654l-15.995 63.973c5.796 8.194 11.264 16.667 16.386 25.377 63.601 21.645 95.762 58.235 101.167 112.108 27.935 1.456 52.040 26.391 52.040 54.542v128c0 28.025-22.295 52.859-51.501 54.52-3.756 98.592-47.229 291.934-323.965 291.934-61.010 0-118.995-12.092-168.28-36.258-34.937 22.928-76.782 36.258-121.854 36.258-122.88 0-221.866-98.986-221.866-221.866 0-92.611 56.23-171.639 136.534-204.958v-47.628c0-29.014 25.6-54.614 56.32-54.614h25.6c9.388 0 18.409 2.691 26.331 7.301 9.681-51.36 31.039-101.874 61.344-144.714l-15.995-63.973c0-3.414 0-8.534 3.414-13.654l7.199-9.896c-69.552-11.614-147.685-41.9-249.545-95.916-32.428-15.362-51.202-47.788-51.202-83.628v-73.386c0-10.242 6.826-17.068 17.066-17.068h989.866c10.24 0 17.066 6.826 17.066 17.066v73.386c0.002 34.134-20.478 66.562-51.198 83.628zM512.094 149.119l40.866-93.653h-82.489l41.624 93.653zM458.070 21.334h107.794l9.99-51.2h-128.027l10.242 51.2zM691.2 260.266l6.826-30.72-17.435-23.937c-1.112-0.911-2.142-2.013-3.045-3.369l-70.99-98.294-22.524-30.929-46.010 103.522c56.115 6.844 106.088 35.445 146.153 76.425 2.37 2.388 4.712 4.813 7.025 7.301zM757.842 366.432c9.626 23.421 16.882 47.768 21.469 72.309 6.498-3.936 13.898-6.568 21.873-7.459-2.957-24.123-13.677-46.899-43.342-64.85zM851.626 615.254v-128c0-10.24-8.534-20.48-20.48-20.48h-25.6c-10.24 0-20.48 8.534-20.48 20.48v128c0 10.24 8.534 20.48 20.48 20.48h25.6c10.24 0 20.48-8.534 20.48-20.48zM512 925.866c105.193 0 282.237-34.34 289.847-257.985-7.152-0.733-14.002-2.908-20.197-6.248-20.769 129.963-134.076 230.101-269.65 230.101-37.46 0-74.92-7.9-110.070-23.686-8.522 11.812-18.178 22.742-28.813 32.638 41.23 16.764 88.846 25.18 138.883 25.18zM34.134 738.134c0 104.106 83.626 187.734 187.734 187.734 65.905 0 123.591-33.52 157.059-84.526 0.455-1.57 1.055-3.006 1.661-4.22 17.484-27.022 27.556-58.486 28.858-91.632 0.016-0.395 0.031-0.791 0.043-1.184 0.068-2.052 0.111-4.106 0.111-6.171 0-2.707-0.068-5.403-0.182-8.081-0.010-0.256-0.018-0.512-0.029-0.768-0.125-2.707-0.307-5.396-0.545-8.071-0.008-0.102-0.018-0.201-0.027-0.303-7.7-84.367-71.473-152.705-156.228-167.096-1.303-0.326-2.605-0.84-3.858-1.513-8.77-1.245-17.736-1.901-26.862-1.901-104.11-0.002-187.736 83.624-187.736 187.732zM237.226 487.254c0-10.24-8.534-20.48-20.48-20.48h-25.6c-10.24 0-20.48 8.534-20.48 20.48v34.916c5.312-1.247 10.7-2.302 16.154-3.162 16.802-3.365 33.604-4.035 50.406-2.742v-29.012zM273.066 522.17c91.798 21.541 161.29 99.803 169.775 196.071 0.031 0.342 0.063 0.684 0.090 1.026 0.242 2.865 0.428 5.749 0.559 8.645 0.020 0.449 0.033 0.895 0.049 1.343 0.115 2.947 0.19 5.902 0.19 8.878 0 2.111-0.037 4.217-0.094 6.314-0.016 0.557-0.043 1.114-0.063 1.669-0.055 1.589-0.125 3.172-0.213 4.753-0.029 0.539-0.068 1.075-0.1 1.616-0.106 1.683-0.233 3.364-0.377 5.036-0.033 0.36-0.061 0.722-0.096 1.082-1.995 21.96-7.158 42.974-15.043 62.59-0.002 0.004-0.004 0.010-0.006 0.014-0.639 1.592-1.294 3.174-1.97 4.748-0.455 1.066-0.922 2.126-1.389 3.184-0.117 0.26-0.231 0.52-0.35 0.78-1.341 2.996-2.726 5.972-4.194 8.906 29.020 11.948 59.74 18.774 92.166 18.774 131.414 0 238.934-107.52 238.934-238.934v-119.466c0-56.463-14.701-108.159-38.531-151.773-40.737-11.817-99.338-18.893-183.335-18.893-10.24 0-17.066-6.826-17.066-17.066s6.826-17.066 17.066-17.066c61.489 0 112.916 3.777 155.030 11.67-1.047-1.047-2.091-2.091-3.138-3.138-8.585-11.448-17.648-21.887-27.116-31.298-40.186-37.439-88.117-60.117-134.304-62.362-2.324 0.997-4.932 1.499-7.541 1.499-2.623 0-4.989-0.514-7.109-1.522-28.271 1.296-57.205 10.258-84.632 25.586-27.785 15.964-53.924 38.978-77.22 68.096-1.706 1.706-3.414 3.414-5.12 5.12l-0.995 0.332c-38.328 50.268-63.859 116.398-63.859 190.814v22.97zM485.976 176.54l-46.010-103.522-22.524 30.929-70.99 98.294c-0.545 0.545-1.145 1.081-1.767 1.612l-18.713 25.694 6.826 30.72c2.31-2.488 4.653-4.911 7.018-7.297 40.067-40.98 90.044-69.583 146.16-76.429zM34.134 26.454c0 22.186 11.946 42.666 32.426 52.906 108.786 57.793 187.095 86.798 256.856 95.461l101.843-140.036-12.929-64.651h-378.196v56.32zM989.866-29.866h-378.196l-12.931 64.651 102.949 141.556c69.513-10.492 149.23-39.475 255.754-95.273 20.48-11.946 32.426-32.426 32.426-54.614v-56.32h-0.002zM238.934 703.998h68.266v-34.134c0-10.24 6.826-17.066 17.066-17.066s17.066 6.826 17.066 17.066v34.134h17.066c10.24 0 17.066 6.826 17.066 17.066s-6.826 17.066-17.066 17.066h-17.066v85.334c0 6.826-5.12 13.654-11.946 17.066-6.826 1.706-13.654 0-18.774-5.12l-85.334-102.4c-3.414-5.12-5.12-11.946-1.706-18.774s8.534-10.238 15.362-10.238zM307.2 775.678v-37.546h-32.426l32.426 37.546zM204.796 685.222h-69.974l59.734 51.2c17.066 17.066 22.186 44.374 13.654 66.56-10.24 23.894-29.014 37.548-54.614 37.548-37.546 0-68.266-30.72-68.266-68.266 0-10.24 6.826-17.066 17.066-17.066s17.066 6.826 17.066 17.066c0 18.774 15.36 34.134 34.134 34.134 15.36 0 20.48-11.946 22.186-17.066 3.414-6.826 3.414-18.774-5.12-27.306l-76.8-66.56c-8.534-6.826-10.24-17.066-6.826-27.306 5.12-8.534 13.654-15.36 23.894-15.36h93.866c10.24 0 17.066 5.12 17.066 15.36 0 10.236-6.826 17.062-17.066 17.062z" />
<glyph unicode="&#xe901;" glyph-name="2" d="M460.276 297.431h-95.771v6.756c0 26.008 21.16 47.17 47.17 47.17 37.827 0 68.606 30.775 68.606 68.606 0 37.829-30.779 68.604-68.606 68.604h-67.172c-11.047 0-20.003-8.954-20.003-20.001 0-11.049 8.956-20.003 20.003-20.003h67.17c15.772 0 28.602-12.833 28.602-28.602s-12.833-28.6-28.602-28.6c-48.067 0-87.173-39.105-87.173-87.173v-26.761c0-11.047 8.958-20.001 20.003-20.001h115.773c11.047 0 20.003 8.954 20.003 20.001 0 11.049-8.956 20.005-20.003 20.005zM653.234 487.856c-11.047 0-20.003-8.954-20.003-20.001v-76.335h-75.768v75.565c0 11.047-8.956 20.001-20.001 20.001-11.047 0-20.003-8.956-20.003-20.001v-95.566c0-11.049 8.958-20.003 20.003-20.003h95.769v-74.797c0-11.047 8.956-20.001 20.003-20.001 11.045 0 20.003 8.956 20.003 20.001v191.138c0 11.045-8.958 19.999-20.003 19.999zM590.346 662.024c-10.693 2.8-21.619-3.592-24.418-14.279-2.8-10.689 3.594-21.621 14.281-24.418 117.686-30.837 199.879-137.456 199.879-259.281 0-147.782-120.23-268.014-268.012-268.014-55.273 0-108.425 16.839-153.092 47.995l25.268 2.521c10.992 1.096 19.014 10.897 17.916 21.889-1.098 10.994-10.891 19.022-21.889 17.918l-73.982-7.381c-5.28-0.53-10.136-3.131-13.494-7.236s-4.952-9.378-4.424-14.655l7.383-73.984c1.030-10.318 9.726-18.016 19.878-18.016 0.664 0 1.333 0.033 2.009 0.098 10.992 1.098 19.014 10.899 17.916 21.891l-2.634 26.393c51.993-37.257 114.291-57.436 179.141-57.436 169.841 0 308.015 138.177 308.015 308.017 0.002 140.003-94.47 262.537-229.741 297.978zM866.701 603.97l44.050 44.055c7.811 7.809 7.811 20.476 0 28.289l-85.203 85.205c-7.813 7.81-20.474 7.81-28.291 0l-43.866-43.866c-42.877 29.313-90.159 50.154-139.36 62.23v60.104h18.070c33.087 0 60.006 26.918 60.006 60.006s-26.917 60.008-60.004 60.008h-240.028c-33.090 0-60.006-26.92-60.006-60.006s26.919-60.006 60.006-60.006h18.067v-60.004c-39.866-9.778-78.813-25.439-115.569-47.156-9.511-5.618-12.667-17.883-7.047-27.396 5.62-9.511 17.885-12.669 27.396-7.047 152.351 89.996 346.264 65.348 471.556-59.947 73.292-73.292 113.654-170.738 113.654-274.387 0-103.651-40.364-201.097-113.654-274.391-73.292-73.292-170.738-113.654-274.391-113.654-103.651 0-201.095 40.362-274.389 113.654-125.295 125.295-149.945 319.205-59.947 471.556 5.618 9.513 2.46 21.776-7.048 27.396-9.516 5.624-21.778 2.462-27.396-7.047-99.286-168.073-72.102-381.985 66.104-520.188 80.849-80.853 188.34-125.377 302.676-125.377s221.829 44.526 302.676 125.372c80.849 80.847 125.372 188.342 125.372 302.676 0.002 86.811-25.69 169.667-73.435 239.921zM574.030 787.714c-40.911 6-82.655 6.062-123.881 0.050v52.222h123.881v-52.272zM430.146 879.99h-38.068c-11.031 0-20.003 8.974-20.003 20.002 0 11.030 8.974 20.002 20.003 20.002h240.028c11.028 0 20.001-8.974 20.001-20.002 0-11.030-8.972-20.002-20.001-20.002h-201.959zM814.768 666.722c-9.378 9.378-19.112 18.223-29.147 26.571l25.784 25.784 56.914-56.916-25.876-25.874c-8.688 10.508-17.91 20.673-27.675 30.435zM237.98 667.021c-7.813 7.809-20.474 7.809-28.291 0l-0.291-0.293c-7.81-7.811-7.81-20.476 0-28.291 3.908-3.906 9.026-5.857 14.146-5.857s10.238 1.952 14.143 5.857l0.293 0.293c7.811 7.811 7.811 20.478 0 28.291zM512.7 672.063h-0.618c-11.047 0-20.003-8.956-20.003-20.003 0-11.049 8.958-20.003 20.003-20.003h0.383c0.039 0 0.080 0 0.119 0 10.992 0 19.937 8.878 20.001 19.884 0.066 11.047-8.835 20.054-19.884 20.122z" />
<glyph unicode="&#xe902;" glyph-name="arrow" horiz-adv-x="559" d="M512.273 948.364c-0.106 0.001-0.231 0.002-0.357 0.002-9.619 0-18.33-3.891-24.644-10.185l-465.454-465.454c-6.342-6.322-10.266-15.066-10.266-24.727s3.924-18.405 10.265-24.726l465.456-465.456c6.322-6.343 15.066-10.268 24.727-10.268s18.406 3.925 24.726 10.267l0.001 0.001c6.343 6.322 10.268 15.066 10.268 24.727s-3.925 18.406-10.267 24.726l-440.728 440.728 440.727 440.727c6.343 6.322 10.268 15.066 10.268 24.727s-3.925 18.406-10.267 24.726l-0.001 0.001c-6.27 6.249-14.904 10.129-24.444 10.182h-0.010z" />
<glyph unicode="&#xe903;" glyph-name="arrow-lg" d="M1014.569 437.352c5.881 5.881 5.881 15.416 0 21.296l-95.832 95.834c-5.881 5.881-15.416 5.881-21.297 0s-5.881-15.416 0-21.296l85.185-85.186-85.185-85.185c-5.881-5.881-5.881-15.416 0-21.297s15.416-5.881 21.297 0l95.832 95.834zM0 432.941h1003.922v30.118h-1003.922v-30.118z" />
<glyph unicode="&#xe904;" glyph-name="cart" d="M181.157 19.758c3.68-12.88 15.452-21.76 28.846-21.76h603.997c13.397 0 25.168 8.88 28.848 21.76l113.783 398.243h-889.257l113.782-398.243zM649.409 152.929l30.003 180.002c2.725 16.343 18.176 27.391 34.52 24.659 16.344-2.724 27.386-18.18 24.661-34.524l-29.998-180.002c-2.446-14.672-15.155-25.071-29.559-25.071-1.638 0-3.294 0.131-4.966 0.415-16.344 2.719-27.386 18.182-24.661 34.52zM482.003 327.999c0 16.569 13.432 30.001 30 30.001s30-13.432 30-30.001v-179.996c0-16.572-13.431-30.003-30-30.003s-30 13.431-30 30.003v179.996zM312.071 357.59c16.346 2.722 31.8-8.316 34.524-24.659l30-180.002c2.724-16.338-8.316-31.801-24.66-34.52-1.668-0.279-3.33-0.415-4.968-0.415-14.402 0-27.11 10.399-29.556 25.071l-30 180.002c-2.724 16.344 8.316 31.801 24.66 34.524zM994.002 598h-105.586l-230.992 288.74c-10.348 12.934-29.224 15.036-42.166 4.684-12.937-10.35-15.036-29.228-4.682-42.166l201.006-251.258h-599.165l201.008 251.258c10.35 12.938 8.252 31.818-4.684 42.166-12.94 10.352-31.818 8.252-42.166-4.684l-230.994-288.74h-105.582c-16.568 0-30-13.432-30-30v-60c0-16.568 13.432-30 30-30h964.002c16.566 0 29.998 13.431 29.998 30v60c0 16.568-13.431 30-29.998 30z" />
<glyph unicode="&#xe905;" glyph-name="close" d="M117.286 912.714l-51.714-51.714 403.857-403.857-422.143-422.143 51.714-51.714 422.143 422.143 422.143-422.143 51.714 51.714-422.143 422.143 403.857 403.857-51.714 51.714-403.857-403.857-403.857 403.857z" />
<glyph unicode="&#xe906;" glyph-name="facebook" d="M767.968 959.787l-132.792 0.213c-149.185 0-245.595-98.913-245.595-252.008v-116.193h-133.514c-11.537 0-20.88-9.353-20.88-20.89v-168.35c0-11.537 9.354-20.879 20.88-20.879h133.514v-424.803c0-11.533 9.343-20.877 20.88-20.877h174.198c11.537 0 20.88 9.35 20.88 20.877v424.803h156.111c11.533 0 20.877 9.342 20.877 20.879l0.064 168.35c0 5.539-2.202 10.845-6.112 14.765s-9.235 6.125-14.778 6.125h-156.163v98.498c0 47.342 11.281 71.375 72.95 71.375l89.453 0.032c11.526 0 20.87 9.353 20.87 20.88v156.322c0 11.516-9.331 20.859-20.845 20.88z" />
<glyph unicode="&#xe907;" glyph-name="heart" d="M618.67 849.68c33.137 13.731 68.654 20.798 104.525 20.798s71.393-7.068 104.53-20.798c33.137-13.731 63.247-33.857 88.607-59.227 25.364-25.355 45.481-55.459 59.213-88.592 13.732-33.138 20.797-68.657 20.797-104.528s-7.066-71.389-20.797-104.528c-13.732-33.135-33.853-63.243-59.223-88.597 0-0.005 0-0.005-0.005-0.010l-377.165-377.165c-7.204-7.199-16.973-11.249-27.154-11.249-10.185 0-19.952 4.050-27.153 11.249l-377.174 377.175c-51.22 51.219-79.996 120.689-79.996 193.125s28.775 141.906 79.996 193.126c51.22 51.22 120.69 79.995 193.126 79.995s141.906-28.775 193.126-79.995l18.074-18.074 18.066 18.067c25.359 25.37 55.465 45.496 88.607 59.227zM723.195 793.678c-25.779 0-51.308-5.080-75.126-14.949s-45.46-24.334-63.688-42.569l-0.005-0.006-45.225-45.227c-7.204-7.201-16.973-11.247-27.154-11.247-10.185 0-19.952 4.046-27.153 11.247l-45.227 45.227c-36.817 36.817-86.753 57.501-138.82 57.501s-102.003-20.684-138.821-57.501c-36.817-36.817-57.501-86.753-57.501-138.821s20.684-102.003 57.501-138.821l350.021-350.020 350.027 350.027c18.232 18.226 32.701 39.866 42.568 63.685 9.871 23.818 14.95 49.348 14.95 75.129s-5.079 51.311-14.95 75.129c-9.866 23.818-24.335 45.458-42.568 63.685l-0.015 0.013c-18.222 18.235-39.864 32.7-63.683 42.569s-49.347 14.949-75.131 14.949z" />
<glyph unicode="&#xe908;" glyph-name="helpline" d="M752.263 297.818c-20.48 11.946-44.374 15.36-63.146 10.24-13.654-3.414-25.6-11.946-34.134-25.6-17.066-22.186-39.254-46.080-44.374-49.494-40.96-27.306-73.386-23.894-107.52 10.24l-179.657 181.232c-0.838 1.18-1.821 2.234-2.957 3.088 0 0-0.225 0.184-0.633 0.532l-11.313 11.414c-34.134 35.84-37.546 66.56-10.24 107.52 5.12 5.12 29.014 27.306 49.494 44.374 11.946 8.534 22.186 20.48 25.6 34.134 5.12 18.774 0 40.96-11.946 63.146-3.414 5.12-73.386 124.587-138.24 158.721-32.426 17.066-73.386 10.24-98.986-15.36l-42.668-42.666c-85.332-85.335-104.106-184.321-52.906-293.549 17.066-35.84 42.666-71.68 75.094-104.106l349.866-349.866c27.306-27.306 54.614-49.494 83.626-64.854 47.788-27.306 95.574-40.96 139.948-40.96 63.146 0 122.88 27.306 175.786 80.214l42.666 44.374c27.306 25.6 32.426 66.56 15.36 98.986-34.132 64.852-153.6 134.826-158.72 138.24zM870.023 82.778l-42.666-42.666c-80.214-80.214-170.666-92.16-274.774-34.134-25.6 13.654-51.2 34.134-75.094 58.026l-349.866 351.574c-30.72 30.72-52.906 63.146-68.266 95.574-44.374 95.572-29.014 179.198 46.080 254.293l42.666 42.666c15.36 15.36 39.254 18.774 56.32 8.534 56.32-29.014 124.586-143.361 124.586-145.067 8.534-13.654 11.946-27.306 8.534-37.546-1.706-5.12-5.12-10.24-11.946-13.654l-1.706-1.706c-13.654-13.654-49.494-42.666-56.32-52.906-9.906-14.623-16.669-29.114-20.316-43.405-11.78 23.671-21.109 50.962-24.058 80.951-1.706 10.24-8.534 17.066-18.774 15.36s-17.066-10.24-15.36-18.774c11.946-119.466 105.814-196.266 109.226-199.68l180.906-180.906c1.305-1.307 2.613-2.568 3.924-3.805 0.371-0.451 0.77-0.889 1.196-1.315 1.706-3.414 78.506-78.506 196.266-90.454h1.706c8.534 0 15.36 6.826 17.066 15.36 0 10.24-6.826 17.066-15.36 18.774-36.1 3.549-68.289 14.289-94.953 26.796 13.14 3.83 26.577 10.252 40.339 19.284 11.946 6.826 40.96 40.96 52.906 56.32v1.706c3.414 6.826 6.826 10.24 13.654 11.946 10.24 1.706 23.894-1.706 37.546-8.534 0 0 116.054-68.266 145.066-124.586 10.246-18.774 6.832-42.666-8.528-58.026zM733.493 960c-160.428 0-290.134-129.706-290.134-290.134 0-46.080 10.24-92.16 32.426-131.414l-32.426-136.532c-1.706-6.826 0-13.654 5.12-17.066 3.414-3.414 6.826-5.12 11.946-5.12 1.706 0 3.414 0 5.12 0l126.294 37.546c42.666-23.894 92.16-37.546 141.654-37.546 160.426 0 290.134 129.706 290.134 290.134s-129.708 290.132-290.134 290.132zM733.493 415.574c-46.080 0-92.16 11.946-131.414 35.84-1.706 1.706-5.12 1.706-8.534 1.706-1.706 0-3.414-1.706-5.12-1.706l-105.814-30.72 27.306 114.346c1.706 3.414 0 8.534-1.706 11.946-20.48 37.546-30.72 80.214-30.72 122.88 0 141.654 114.346 256 256 256s256-112.64 256-254.294c0-141.654-114.346-255.998-255.998-255.998zM614.025 755.198h238.934c10.24 0 17.066 6.826 17.066 17.066s-6.826 17.066-17.066 17.066h-238.934c-10.24 0-17.066-6.826-17.066-17.066s6.826-17.066 17.066-17.066zM887.085 686.94h-307.2c-10.24 0-17.066-6.826-17.066-17.066s6.826-17.066 17.066-17.066h307.2c10.24 0 17.066 6.826 17.066 17.066 0 10.238-6.826 17.066-17.066 17.066zM852.959 584.53h-238.934c-10.24 0-17.066-6.826-17.066-17.066s6.826-17.066 17.066-17.066h238.934c10.24 0 17.066 6.826 17.066 17.066s-6.826 17.066-17.066 17.066z" />
<glyph unicode="&#xe909;" glyph-name="in" d="M147.919 908c-70.394 0-116.419-46.225-116.419-106.98 0-59.414 44.654-106.957 113.719-106.957h1.336c71.772 0 116.438 47.543 116.438 106.957-1.342 60.756-44.666 106.98-115.073 106.98zM43.672 609.5h205.794v-619.139h-205.794v619.139zM754.592 624.063c-111.021 0-185.464-104.321-185.464-104.321v89.789h-205.8v-619.138h205.788v345.75c0 18.51 1.341 36.991 6.779 50.227 14.877 36.961 48.733 75.252 105.583 75.252 74.47 0 104.256-56.778 104.256-140.010v-331.219h205.773v355.002c0 190.172-101.53 278.667-236.915 278.667z" />
<glyph unicode="&#xe90a;" glyph-name="insta" d="M1022.994 658.941c-2.399 54.41-11.197 91.815-23.801 124.227-13.003 34.405-33.006 65.208-59.215 90.815-25.607 26.005-56.613 46.212-90.62 59.012-32.6 12.604-69.81 21.403-124.219 23.801-54.816 2.602-72.217 3.204-211.244 3.204s-156.429-0.602-211.041-3.001c-54.41-2.399-91.815-11.205-124.22-23.802-34.413-13.002-65.216-33.006-90.822-59.215-26.005-25.607-46.204-56.613-59.011-90.619-12.604-32.609-21.403-69.81-23.801-124.22-2.602-54.816-3.204-72.217-3.204-211.244 0-139.028 0.602-156.429 3.001-211.042 2.399-54.41 11.205-91.815 23.809-124.227 13.002-34.405 33.202-65.208 59.207-90.814 25.607-26.005 56.613-46.213 90.619-59.012 32.609-12.604 69.81-21.403 124.227-23.802 54.604-2.406 72.014-3 211.041-3s156.429 0.594 211.041 3c54.41 2.399 91.815 11.198 124.22 23.802 68.817 26.606 123.227 81.016 149.833 149.826 12.597 32.609 21.403 69.818 23.802 124.227 2.399 54.613 3 72.014 3 211.042s-0.203 156.428-2.602 211.041zM930.781 240.859c-2.205-50.009-10.604-77.015-17.605-95.018-17.206-44.61-52.612-80.015-97.221-97.221-18.003-7.003-45.204-15.402-95.018-17.598-54.010-2.406-70.208-3-206.836-3s-153.031 0.594-206.845 3c-50.009 2.196-77.015 10.595-95.018 17.598-22.2 8.204-42.407 21.207-58.808 38.21-17.003 16.605-30.006 36.609-38.211 58.808-7.001 18.003-15.401 45.213-17.597 95.018-2.407 54.010-3.001 70.217-3.001 206.845s0.594 153.029 3.001 206.838c2.196 50.009 10.596 77.015 17.597 95.018 8.205 22.208 21.207 42.407 38.414 58.816 16.596 17.004 36.601 30.006 58.808 38.203 18.003 7.001 45.211 15.401 95.018 17.605 54.010 2.399 70.216 3.001 206.836 3.001 136.831 0 153.029-0.602 206.845-3.001 50.009-2.204 77.015-10.604 95.018-17.605 22.199-8.197 42.407-21.199 58.808-38.203 17.003-16.605 30.005-36.608 38.21-58.816 7.001-18.003 15.401-45.204 17.605-95.018 2.399-54.010 3-70.21 3-206.838s-0.601-152.632-3-206.642zM513.893 710.943c-145.222 0-263.050-117.82-263.050-263.052 0-145.231 117.827-263.051 263.050-263.051 145.231 0 263.051 117.82 263.051 263.051s-117.82 263.052-263.051 263.052zM513.893 277.255c-94.212 0-170.634 76.414-170.634 170.635 0 94.223 76.421 170.636 170.634 170.636 94.221 0 170.635-76.414 170.635-170.636s-76.414-170.635-170.635-170.635zM848.769 721.347c0-33.913-27.497-61.411-61.418-61.411-33.913 0-61.411 27.497-61.411 61.411 0 33.921 27.497 61.411 61.411 61.411 33.921 0 61.418-27.49 61.418-61.411z" />
<glyph unicode="&#xe90b;" glyph-name="mail" d="M170.7 827.7c-67.879 0-123.8-55.821-123.8-123.7v-512c0-67.877 55.921-123.7 123.8-123.7h682.6c67.88 0 123.8 55.823 123.8 123.7v512c0 67.879-55.92 123.7-123.8 123.7h-682.6zM170.7 750.9h682.6c25.99 0 47-20.913 47-46.9v-512c0-25.983-21.010-46.9-47-46.9h-682.6c-25.987 0-47 20.917-47 46.9v512c0 25.987 21.013 46.9 47 46.9zM86.4 742.4c-0.303 0.009-0.66 0.013-1.017 0.013-12.977 0-24.45-6.437-31.402-16.292l-0.081-0.121c-4.356-6.143-6.964-13.793-6.964-22.052 0-12.955 6.416-24.412 16.244-31.367l0.12-0.081 426.7-298.6c6.133-4.333 13.764-6.926 22-6.926s15.867 2.593 22.121 7.007l-0.121-0.081 426.7 298.6c9.948 7.035 16.364 18.492 16.364 31.448 0 8.259-2.607 15.909-7.044 22.172l0.080-0.12c-7.031 9.986-18.51 16.431-31.495 16.431-8.239 0-15.872-2.595-22.126-7.011l0.121 0.081-404.6-283.3-404.6 283.3c-5.867 4.14-13.116 6.693-20.949 6.899l-0.051 0.001z" />
<glyph unicode="&#xe90c;" glyph-name="map-pin" d="M512 955.7c-112.012 0-219.495-44.495-298.7-123.7s-123.7-186.687-123.7-298.7c0-165.789 103.261-310.949 202.5-415.7s198.6-170.9 198.6-170.9c5.986-4.040 13.362-6.448 21.3-6.448s15.314 2.409 21.437 6.535l-0.137-0.087c0 0 99.361 66.149 198.6 170.9s202.5 249.911 202.5 415.7c0 112.013-44.497 219.495-123.7 298.7-79.204 79.206-186.688 123.7-298.7 123.7zM512 878.9c91.672 0 179.579-36.377 244.4-101.2s101.2-152.726 101.2-244.4c0-132.875-88.739-264.985-181.5-362.9-82.094-86.655-146.322-129.108-164.1-141.4-17.778 12.292-82.006 54.745-164.1 141.4-92.761 97.915-181.5 230.025-181.5 362.9 0 91.674 36.377 179.577 101.2 244.4s152.727 101.2 244.4 101.2zM512 699.7c-91.445 0-166.4-74.955-166.4-166.4s74.955-166.3 166.4-166.3c91.445 0 166.4 74.855 166.4 166.3s-74.955 166.4-166.4 166.4zM512 622.9c49.939 0 89.6-39.661 89.6-89.6s-39.661-89.5-89.6-89.5c-49.94 0-89.6 39.561-89.6 89.5s39.661 89.6 89.6 89.6z" />
<glyph unicode="&#xe90d;" glyph-name="map-pin-big" d="M335.95 259.049c42.172-59.46 84.275-112.64 112.179-146.891 4.063-4.985 7.868-9.609 11.555-14.064h-84.206c-9.427 0-17.066-7.639-17.066-17.066 0-9.425 7.639-17.066 17.066-17.066h273.064c9.427 0 17.066 7.641 17.066 17.066 0 9.427-7.639 17.066-17.066 17.066h-84.206c3.686 4.454 7.492 9.081 11.571 14.064 27.886 34.134 69.974 87.431 112.163 146.891 41.859 57.811 79.534 118.536 112.742 181.709 34.851 68.44 52.531 125.254 52.531 168.876 0.117 90.642-35.85 177.602-99.959 241.682-4.282 4.44-10.627 6.224-16.595 4.666s-10.631-6.214-12.198-12.18c-1.567-5.966 0.209-12.312 4.643-16.6 57.704-57.688 90.077-135.97 89.975-217.566 0-38.197-16.417-89.805-48.81-153.379-32.457-61.71-69.28-121.027-110.182-177.496-41.607-58.692-83.2-111.274-110.762-145.066-9.165-11.229-17.408-21.162-24.441-29.559-3.281-3.75-8.022-5.896-13.003-5.896-4.983 0-9.722 2.148-13.005 5.896-7.031 8.395-15.274 18.33-24.439 29.559-27.564 33.774-69.155 86.358-110.764 145.066-40.901 56.47-77.724 115.786-110.182 177.496-32.426 63.574-48.81 115.182-48.81 153.379-0.010 123.617 73.918 235.254 187.736 283.495 76.474 32.068 162.628 32.068 239.104 0 5.616-2.38 12.075-1.586 16.943 2.088 4.87 3.672 7.412 9.664 6.664 15.718-0.745 6.054-4.663 11.25-10.279 13.63-173.797 73.304-374.114-8.124-447.472-181.897-17.79-42.093-26.914-87.339-26.828-133.034 0-43.622 17.682-100.438 52.533-168.962 33.204-63.146 70.881-123.843 112.736-181.625zM512.008 763.696c9.425 0 17.066 7.64 17.066 17.066s-7.641 17.066-17.066 17.066c-81.42 0.002-151.505-57.513-167.391-137.371-15.886-79.856 26.851-159.812 102.074-190.972s161.98-4.841 207.217 62.855c45.236 67.699 36.35 157.925-21.221 215.499-4.286 4.436-10.631 6.218-16.599 4.655-5.966-1.563-10.625-6.222-12.188-12.188-1.563-5.968 0.217-12.313 4.653-16.599 46.062-46.057 53.17-118.237 16.984-172.397s-105.591-75.217-165.769-50.293c-60.178 24.924-94.372 88.889-81.666 152.775 12.704 63.887 68.77 109.901 133.906 109.903zM1017.575 20.085l-104.962 187.736c-9.488 16.679-27.247 26.931-46.436 26.812h-121.635c-9.427 0-17.066-7.641-17.066-17.068 0-9.425 7.639-17.066 17.066-17.066h121.635c6.832 0.133 13.206-3.428 16.673-9.316l104.927-187.736c2.857-4.882 2.798-10.94-0.154-15.77-3.488-5.759-9.791-9.21-16.521-9.046h-918.189c-6.724-0.16-13.020 3.293-16.504 9.046-2.952 4.829-3.010 10.887-0.154 15.77l104.926 187.736c3.462 5.886 9.83 9.447 16.656 9.316h121.634c9.427 0 17.066 7.641 17.066 17.066 0 9.427-7.639 17.068-17.066 17.068h-121.632c-19.2 0.125-36.972-10.127-46.472-26.812l-104.944-187.736c-8.75-15.454-8.548-34.415 0.53-49.68 9.564-16.257 27.102-26.143 45.96-25.909h918.189c18.852-0.227 36.385 9.656 45.945 25.909 9.077 15.268 9.279 34.226 0.528 49.68zM836.276 149.295h-68.266c-3.369-0.006-6.664-1.001-9.472-2.867l-51.2-34.134c-7.842-5.233-9.957-15.831-4.729-23.673 5.233-7.842 15.831-9.957 23.673-4.729l46.848 31.267h63.146c9.427 0 17.066 7.643 17.066 17.066 0 9.431-7.639 17.070-17.066 17.070zM733.87 29.823c0-9.425 7.639-17.066 17.066-17.066h136.534c9.427 0 17.066 7.641 17.066 17.066 0 9.427-7.639 17.068-17.066 17.068h-136.534c-9.427 0-17.066-7.641-17.066-17.068zM307.202 81.029c7.524-0.010 14.166 4.911 16.353 12.11 2.185 7.201-0.602 14.983-6.863 19.157l-51.2 34.134c-2.812 1.868-6.113 2.865-9.49 2.867h-68.266c-9.426 0-17.066-7.641-17.066-17.066s7.642-17.066 17.066-17.066h63.146l46.901-31.265c2.789-1.866 6.068-2.863 9.419-2.871zM136.546 46.891c-9.426 0-17.066-7.641-17.066-17.068 0-9.425 7.64-17.066 17.066-17.066h136.534c9.427 0 17.066 7.641 17.066 17.066 0 9.427-7.639 17.068-17.066 17.068h-136.534z" />
<glyph unicode="&#xe90e;" glyph-name="natural" d="M1020.104 376.032c-0.032 0.611-0.089 1.226-0.178 1.837l-51.326 357.136c-0.873 6.078-4.49 11.418-9.807 14.484s-11.751 3.522-17.453 1.23l-236.205-94.965c-10.25-4.119-15.217-15.77-11.099-26.017 4.122-10.252 15.774-15.218 26.020-11.099l212.568 85.463 47.363-329.552c0.025-0.929 0.117-1.861 0.275-2.793 10.357-60.963-0.982-124.050-31.92-177.638-35.629-61.712-93.226-105.819-162.184-124.192-68.977-18.379-141.057-8.818-202.974 26.927-0.427 0.247-0.867 0.455-1.305 0.667 13.274 10.088 25.759 21.011 37.405 32.695l234.157 62.742c10.672 2.857 17.003 13.827 14.143 24.497-2.857 10.67-13.833 17.004-24.496 14.144l-180.171-48.276c19.797 29.452 35.286 61.932 45.869 96.682l160.745 43.071c10.672 2.857 17.003 13.827 14.143 24.497-2.857 10.67-13.833 17.004-24.496 14.144l-118.276-31.693 44.477 77.038 93.99 25.185c10.672 2.858 17.004 13.828 14.144 24.497s-13.834 17.004-24.497 14.144l-55.35-14.832 42.56 73.718c5.524 9.569 2.245 21.801-7.32 27.322-9.567 5.525-21.799 2.247-27.322-7.319l-42.56-73.716-14.832 55.35c-2.86 10.67-13.83 17.004-24.496 14.143-10.672-2.857-17.004-13.827-14.144-24.497l25.185-93.99-26.024-45.076c0.768 64.026-15.615 127.298-48.448 184.166-41.346 71.611-106.595 127.228-183.812 156.692-0.126 0.053-0.256 0.107-0.383 0.161l-90.504 36.732c-10.244 4.154-21.9-0.778-26.053-11.012-4.155-10.238 0.775-21.902 11.011-26.055l89.68-36.397c0.407-0.186 0.821-0.357 1.241-0.518 68.978-26.121 127.286-75.7 164.178-139.602 42.944-74.383 54.272-161.085 31.896-244.142-20.642-76.611-67.694-141.64-133.414-185.088l-33.568 58.141 72.774 271.591c2.86 10.672-3.473 21.639-14.144 24.498-10.677 2.858-21.636-3.474-24.496-14.144l-62.419-232.956-74.051 128.262 50.488 188.416c2.86 10.672-3.473 21.637-14.144 24.498-10.674 2.86-21.636-3.474-24.496-14.144l-40.132-149.776-58.374 101.105 30.405 113.471c2.86 10.672-3.471 21.637-14.144 24.497-10.676 2.858-21.636-3.473-24.496-14.143l-20.054-74.831-55.299 95.785c-5.522 9.566-17.756 12.845-27.323 7.32-9.567-5.522-12.845-17.756-7.32-27.323l55.3-95.782-74.828 20.050c-10.673 2.861-21.636-3.473-24.496-14.143-2.86-10.673 3.471-21.639 14.144-24.498l113.468-30.405 58.374-101.107-149.772 40.131c-10.674 2.86-21.637-3.474-24.497-14.144-2.86-10.672 3.473-21.637 14.144-24.498l188.412-50.485 74.053-128.263-232.95 62.419c-10.676 2.86-21.637-3.474-24.497-14.144-2.86-10.672 3.473-21.637 14.144-24.497l271.59-72.773 33.564-58.134c-151.147-75.331-337.161-21.075-422.475 126.691-37.292 64.591-50.956 140.632-38.474 214.114 0.17 0.992 0.26 1.981 0.276 2.967l57.114 397.491 132.502-53.778c10.246-4.156 21.9 0.776 26.053 11.012 4.155 10.238-0.775 21.902-11.011 26.056l-156.185 63.392c-5.698 2.31-12.15 1.874-17.482-1.188-5.334-3.062-8.962-8.41-9.838-14.502l-61.128-425.348c-0.098-0.674-0.158-1.35-0.186-2.020-13.276-81.834 2.208-166.314 43.706-238.19 66.826-115.75 188.588-180.492 313.756-180.49 55.283 0 111.218 12.679 163.387 39.12l24.582-42.576c3.705-6.415 10.427-10.003 17.342-10.003 3.392 0 6.832 0.863 9.981 2.681 9.569 5.522 12.847 17.756 7.32 27.322l-9.114 15.789c44.196-22.943 92.403-34.683 141.185-34.683 26.58 0 53.331 3.474 79.685 10.496 79.3 21.132 145.547 71.864 186.529 142.847 35.177 60.928 48.321 132.536 37.116 201.912z" />
<glyph unicode="&#xe90f;" glyph-name="organic" d="M727.277 435.466c-1.766 6.031-6.299 10.958-12.326 13.161-1.216 0.445-11.074 3.932-26.386 6.173 65.416 69.606 43.818 150.927 38.712 166.81-1.766 6.034-6.299 10.96-12.326 13.164-2.807 1.027-51.769 18.292-107.554-1.122 3.151 12.921 4.993 27.127 4.993 42.715 0 99.735-75.526 143.57-90.683 151.352-5.514 3.020-12.208 3.296-18.024 0.592-3.751-1.742-91.859-43.908-91.859-151.944 0-15.62 1.851-29.855 5.013-42.797-55.883 19.544-104.976 2.234-107.789 1.204-6.026-2.205-10.559-7.13-12.326-13.164-5.105-15.882-26.703-97.204 38.713-166.81-15.312-2.241-25.17-5.729-26.387-6.173-6.026-2.203-10.562-7.131-12.327-13.163-5.212-16.214-27.623-100.623 42.9-171.147 40.812-40.812 86.108-50.548 120.045-50.548 12.563 0 23.545 1.339 32.192 2.926v-130.866c0-11.045 8.954-20 20-20s20 8.956 20 20v130.915c8.685-1.608 19.775-2.974 32.475-2.974 33.934 0 79.236 9.741 120.044 50.549 70.524 70.526 48.112 154.931 42.9 171.146zM491.858 279.041c-0.445-9.077-1.719-16.707-2.936-22.193-21.378-4.75-74.866-10.394-121.015 35.755-45.454 45.451-40.689 98.052-35.657 121.005 13.442 2.921 39.671 6.178 68.712-3.246 1.912-0.715 3.818-1.393 5.714-2.022 15.38-5.832 31.348-15.353 46.482-30.484 28.837-28.837 37.449-60.537 38.7-85.47v-13.344zM491.858 465.184c-0.445-9.078-1.719-16.707-2.936-22.192-13.246-2.946-38.818-6.217-67.332 2.683-2.891 1.115-5.764 2.128-8.618 3.047-14.917 5.891-30.362 15.323-45.066 30.025-45.452 45.452-40.688 98.052-35.656 121.002 21.358 4.645 74.996 10.161 120.908-35.751 0.291-0.293 0.556-0.587 0.841-0.876 1.754-1.969 3.514-3.85 5.272-5.658 23.938-27.022 31.431-55.874 32.587-78.936v-13.344zM512.139 565.532c-6.267 4.020-15.3 10.647-24.474 20.224-0.936 1.027-1.881 2.052-2.854 3.075-16.71 18.561-32.987 47.035-32.987 87.537 0 65.194 41.719 99.021 60.182 110.797 19.772-12.652 60.382-46.479 60.382-110.797 0-38.22-14.343-65.644-29.927-84.18-3.24-3.243-6.271-6.52-9.13-9.811-7.996-7.775-15.654-13.316-21.192-16.845zM531.981 471.666c-0.028 23.48 6.046 54.551 30.915 83.732 2.946 2.927 5.908 6.078 8.844 9.463 45.893 45.142 98.757 39.629 120.001 34.929 5.034-22.93 9.83-75.564-35.65-121.043-14.675-14.678-30.092-24.102-44.981-29.997-2.902-0.932-5.825-1.962-8.764-3.097-28.511-8.885-54.067-5.603-67.261-2.667-1.48 6.665-3.047 16.456-3.106 28.169 0 0.171 0.001 0.341 0.001 0.511zM656.091 292.604c-46.156-46.158-99.645-40.504-120.974-35.771-4.65 21.276-10.272 75.028 35.724 121.024 14.715 14.716 30.173 24.15 45.101 30.043 2.848 0.916 5.714 1.924 8.596 3.035 28.453 8.88 53.966 5.639 67.202 2.714 5.034-22.932 9.83-75.565-35.65-121.044zM618.713 948.858c-34.863 7.392-70.767 11.142-106.713 11.142-136.76 0-265.334-53.256-362.038-149.962-96.704-96.704-149.962-225.279-149.962-362.038 0-113.957 38.34-225.194 108.192-314.762-7.858-12.156-12.088-26.317-12.088-41.137 0-20.3 7.906-39.383 22.26-53.74 14.354-14.354 33.44-22.26 53.74-22.26s39.386 7.907 53.741 22.26c14.355 14.356 22.259 33.439 22.259 53.74s-7.905 39.385-22.259 53.741c-14.355 14.355-33.441 22.262-53.741 22.262-12.032 0-23.63-2.798-34.076-8.050-63.304 82.176-98.028 183.824-98.028 287.946 0 260.261 211.739 472 472 472 33.164 0 66.273-3.456 98.414-10.272 10.812-2.29 21.422 4.612 23.714 15.416 2.292 10.806-4.609 21.422-15.416 23.714zM146.649 117.56c7.017 7.020 16.235 10.528 25.455 10.528s18.438-3.509 25.457-10.528c6.799-6.798 10.544-15.84 10.544-25.455 0-9.617-3.745-18.656-10.544-25.457-14.036-14.039-36.876-14.036-50.912 0-6.801 6.798-10.545 15.84-10.545 25.457 0 9.615 3.744 18.656 10.545 25.455zM915.81 762.764c7.858 12.155 12.088 26.315 12.088 41.136 0 20.3-7.905 39.386-22.26 53.74-14.354 14.356-33.439 22.26-53.74 22.26s-39.386-7.906-53.74-22.26c-14.355-14.354-22.26-33.44-22.26-53.74s7.905-39.386 22.26-53.74c14.354-14.356 33.439-22.26 53.74-22.26 12.033 0 23.63 2.798 34.079 8.050 63.301-82.179 98.026-183.827 98.026-287.949 0-260.261-211.738-472-472.001-472-27.998 0-56.049 2.468-83.376 7.338-10.868 1.934-21.263-5.304-23.198-16.182-1.938-10.873 5.306-21.26 16.181-23.198 29.637-5.279 60.049-7.958 90.393-7.958 136.761 0 265.334 53.258 362.041 149.96 96.705 96.702 149.959 225.28 149.959 362.040 0 113.957-38.34 225.195-108.191 314.763zM877.356 778.443c-6.798-6.799-15.84-10.543-25.457-10.543-9.615 0-18.657 3.742-25.455 10.543-14.038 14.036-14.038 36.875 0 50.913 6.798 6.8 15.84 10.544 25.455 10.544 9.617 0 18.657-3.744 25.457-10.544 6.799-6.798 10.544-15.841 10.544-25.456s-3.745-18.656-10.544-25.457zM336.268 9.798l-7.553-18.52 7.496 18.542c-10.246 4.137-21.898-0.806-26.037-11.046s0.806-21.898 11.046-26.039l0.617-0.244c2.358-0.903 4.786-1.33 7.174-1.33 8.056 0 15.67 4.876 18.719 12.829 3.951 10.318-1.145 21.858-11.461 25.808zM703.647 922.914l-0.355 0.142c-10.255 4.104-21.895-0.886-25.998-11.142-4.105-10.256 0.885-21.892 11.141-25.996l0.228-0.092c2.456-0.992 4.99-1.46 7.487-1.46 7.911 0 15.404 4.726 18.549 12.512 4.138 10.242-0.81 21.898-11.052 26.036z" />
<glyph unicode="&#xe910;" glyph-name="phone" d="M980.468 934.37h-715.268c-24.031-0.028-43.504-19.501-43.532-43.531v-197.288l-32.707 49.062c-14.972 22.583-45.081 29.359-68.283 15.364l-67.293-40.458c-22.038-12.931-38.203-33.901-45.101-58.503-24.548-89.383-6.334-243.38 219.702-469.449 179.755-179.569 313.778-227.93 406.149-227.93 21.385-0.098 42.689 2.681 63.332 8.262 24.592 6.898 45.562 23.042 58.52 45.050l40.405 67.363c13.941 23.183 7.17 53.23-15.364 68.198l-161.13 107.409c-22.104 14.621-51.73 9.812-68.080-11.045l-46.911-60.31c-4.903-6.455-13.797-8.335-20.896-4.422l-8.927 4.917c-29.379 16.011-65.944 35.951-139.792 109.799-7.989 7.989-15.227 15.464-22.022 22.618h667.199c23.97-0.016 43.436 19.358 43.53 43.327v528.034c-0.029 24.030-19.501 43.503-43.53 43.531zM458.746 157.082l8.673-4.764c21.799-12.19 49.24-6.533 64.442 13.281l46.911 60.31c5.333 6.795 14.983 8.36 22.19 3.604l161.133-107.411c7.32-4.878 9.519-14.645 5.001-22.192l-40.407-67.361c-8.438-14.471-22.147-25.113-38.255-29.704-80.693-22.192-221.921-3.414-436.263 210.944-214.343 214.358-233.050 355.572-210.91 436.197 4.587 16.105 15.224 29.813 29.685 38.255l67.363 40.425c7.548 4.508 17.308 2.31 22.192-5.001l107.461-161.133c4.764-7.205 3.199-16.863-3.604-22.192l-60.328-46.926c-19.811-15.198-25.468-42.633-13.281-64.426l4.779-8.673c17.071-31.308 38.29-70.263 115.639-147.593 77.351-77.335 116.29-98.568 147.579-115.64zM989.858 362.803c-0.057-5.134-4.256-9.257-9.388-9.218h-697.997c-22.17 25.354-41.29 53.221-56.965 83.032l-4.917 8.962c-3.922 7.082-2.044 15.968 4.405 20.861l60.328 46.928c20.865 16.345 25.674 45.976 11.045 68.080l-40.559 60.875v248.517c-0.029 2.499 0.952 4.903 2.718 6.67 1.767 1.766 4.172 2.747 6.67 2.719h715.27c2.499 0.028 4.903-0.952 6.668-2.719 1.767-1.766 2.746-4.171 2.72-6.67v-528.036h0.002zM921.676 855.332l-285.305-216.373c-8.073-5.865-19.003-5.865-27.075 0l-285.2 216.373c-7.514 5.699-18.227 4.227-23.925-3.287-5.7-7.514-4.227-18.226 3.287-23.924l285.235-216.355c20.294-14.991 47.991-14.991 68.284 0l285.321 216.355c3.611 2.737 5.986 6.798 6.601 11.287s-0.582 9.038-3.324 12.645c-5.698 7.5-16.392 8.966-23.9 3.279zM477.157 610.333l-174.873-187.267c-6.429-6.896-6.052-17.701 0.844-24.13 6.898-6.431 17.701-6.052 24.132 0.844l174.875 187.351c5.777 6.971 5.108 17.24-1.524 23.402-6.636 6.164-16.925 6.076-23.454-0.201zM769.64 610.331c-6.429 6.896-17.232 7.277-24.13 0.846-6.896-6.431-7.277-17.234-0.844-24.132l174.821-187.267c6.431-6.896 17.234-7.277 24.132-0.844 6.896 6.429 7.274 17.232 0.844 24.13l-174.823 187.267z" />
<glyph unicode="&#xe911;" glyph-name="quality" d="M214 579.999c0-165.421 134.578-300 300-300s300.001 134.578 300.001 300c0 165.423-134.578 300.001-300.001 300.001-165.421 0-300-134.578-300-300.001zM514 840c143.369 0 260.001-116.633 260.001-260s-116.632-260.001-260.001-260.001c-143.367 0-259.999 116.634-259.999 260.001s116.632 260 259.999 260zM328.782 615.657l77.524-76.383-17.835-107.352c-1.243-7.477 1.843-15.007 7.975-19.46 6.125-4.453 14.242-5.056 20.969-1.571l96.587 50.157 96.578-50.157c6.672-3.461 14.789-2.921 20.97 1.571 6.132 4.453 9.219 11.984 7.975 19.46l-17.835 107.352 77.523 76.383c5.399 5.313 7.329 13.218 4.985 20.43-2.343 7.203-8.555 12.461-16.048 13.593l-107.586 16.195-48.679 97.353c-3.384 6.773-10.313 11.053-17.883 11.053-7.578 0-14.5-4.28-17.891-11.053l-48.679-97.353-107.586-16.195c-7.493-1.125-13.704-6.39-16.048-13.593-2.343-7.212-0.407-15.117 4.984-20.43zM463.657 627.867c6.438 0.97 12.001 5.009 14.915 10.83l35.429 70.867 35.43-70.867c2.914-5.821 8.476-9.86 14.914-10.83l78.305-11.788-56.43-55.587c-4.633-4.57-6.758-11.109-5.696-17.531l12.984-78.133-70.296 36.5c-2.883 1.499-6.047 2.25-9.212 2.25s-6.328-0.75-9.219-2.25l-70.296-36.5 12.984 78.133c1.069 6.422-1.055 12.961-5.696 17.531l-56.421 55.587 78.304 11.788zM534 940c0-11.047-8.953-20-20-20-11.046 0-20 8.953-20 20s8.954 20 20 20c11.047 0 20-8.953 20-20zM419.742 948.212c-168.242-42.945-285.742-194.359-285.742-368.211 0-107.976 45.399-209.72 125.094-281.774l-120.492-212.353c-3.875-6.836-3.391-15.304 1.234-21.647 4.625-6.352 12.531-9.406 20.227-7.806l136.836 28.415 48.094-135.523c2.608-7.374 9.289-12.54 17.086-13.234 7.796-0.695 15.272 3.234 19.14 10.040l132.782 233.437 132.773-233.437c3.578-6.289 10.234-10.11 17.374-10.11 0.587 0 1.181 0.023 1.766 0.070 7.797 0.695 14.476 5.868 17.093 13.234l48.087 135.523 136.836-28.415c7.687-1.593 15.601 1.461 20.227 7.806 4.633 6.343 5.11 14.811 1.235 21.647l-120.493 212.353c79.695 72.054 125.093 173.798 125.093 281.774 0 173.852-117.5 325.266-285.734 368.211-10.711 2.734-21.595-3.727-24.329-14.43s3.727-21.594 14.43-24.328c150.516-38.422 255.642-173.899 255.642-329.453 0-189.322-153.758-340.002-340-340.002-186.375 0-340.002 150.806-340.002 340.002 0 155.554 105.118 291.031 255.634 329.453 10.702 2.734 17.164 13.625 14.437 24.328-2.734 10.703-13.618 17.164-24.329 14.43zM368.071 3.89l-39.306 110.759c-3.343 9.422-13.125 14.93-22.914 12.898l-110.648-22.977 95.359 168.063c55.602-40.422 121.438-65.047 189.898-71.14l-112.39-197.603zM722.141 127.547c-9.781 2.032-19.57-3.476-22.914-12.898l-39.297-110.759-112.399 197.603c68.469 6.093 134.298 30.719 189.907 71.14l95.359-168.063-110.656 22.977z" />
<glyph unicode="&#xe912;" glyph-name="search" d="M422.066 116.645c-232.514 0-421.677 189.161-421.677 421.678 0 232.514 189.163 421.677 421.677 421.677s421.676-189.163 421.676-421.677c0-232.517-189.161-421.678-421.676-421.678zM422.066 880.061c-188.436 0-341.738-153.303-341.738-341.738 0-188.434 153.302-341.738 341.738-341.738s341.741 153.304 341.741 341.738c0 188.435-153.304 341.738-341.741 341.738zM1011.9-52.292c15.61 15.61 15.61 40.92 0 56.525l-178.864 178.864c-15.61 15.61-40.914 15.61-56.525 0s-15.61-40.92 0-56.525l178.864-178.864c7.805-7.805 18.034-11.708 28.262-11.708s20.457 3.903 28.262 11.708z" />
<glyph unicode="&#xe913;" glyph-name="shipping" d="M229.28 241.129c-18.964 0-34.48-15.516-34.48-34.48 0-18.962 15.515-34.478 34.48-34.478 18.962 0 34.478 15.516 34.478 34.478 0 18.964-15.516 34.48-34.478 34.48zM817.129 241.129c-18.964 0-34.48-15.516-34.48-34.48 0-18.962 15.516-34.478 34.48-34.478 18.962 0 34.478 15.516 34.478 34.478 0 18.964-15.516 34.48-34.478 34.48zM765.417 361.802h-34.478c-10.344 0-17.24-6.896-17.24-17.238 0-10.344 6.896-17.24 17.24-17.24h34.478c10.342 0 17.238 6.896 17.238 17.24 0 10.342-6.896 17.238-17.238 17.238zM1001.591 398.006l-67.234 27.582-43.098 172.392c-5.171 24.136-25.858 39.649-49.994 39.649h-90.561c22.624 69.56 31.248 129.904 31.949 136.189 0 5.172-1.724 8.62-3.449 13.792-3.449 3.449-8.62 5.172-13.793 5.172h-622.326c-8.62 0-15.515-5.172-15.515-13.792l-9.929-55.166h-62.475c-10.343 0-17.238-6.894-17.238-17.238 0-10.342 6.895-17.238 17.238-17.238h56.269l-6.206-34.478h-62.131c-10.343 0-17.238-6.896-17.238-17.24 0-10.342 6.895-17.238 17.238-17.238h55.923l-6.206-34.478h-61.784c-10.343 0-17.238-6.896-17.238-17.238 0-10.344 6.895-17.238 17.238-17.238h55.578l-6.206-34.48h-63.164c-10.343 0-17.238-6.896-17.238-17.238 0-10.344 6.895-17.238 17.238-17.238h56.958l-8.689-48.269c-0.382-1.147-0.57-2.292-0.632-3.422l-40.739-220.688c-1.723-5.171-1.723-8.62 1.723-13.791 3.448-5.173 8.62-6.896 13.792-6.896h87.671c8.273-48.757 50.943-86.196 101.96-86.196s93.686 37.439 101.958 86.196h383.932c8.272-48.757 50.944-86.196 101.96-86.196s93.686 37.439 101.96 86.196h70.431c18.962 0 34.478 15.516 34.478 34.478v141.359c0 15.516-8.62 27.582-22.409 32.754zM299.96 516.956h-184.267l6.129 34.48h191.927c8.62 0 17.238 6.894 17.238 17.238 0 10.342-6.894 17.238-17.238 17.238h-185.798l6.129 34.478h191.738c10.342 0 17.238 6.896 17.238 17.238 0 10.344-6.896 17.24-17.238 17.24h-185.608l6.129 34.478h191.546c10.342 0 17.238 6.896 17.238 17.238 0 10.344-6.896 17.238-17.238 17.238h-185.414l6.129 34.479h586.127c-5.063-29.656-17.416-89.052-40.229-148.014-28.238-72.045-75.282-150.594-146.864-161.098-0.465-0.066-0.934-0.131-1.403-0.193-0.995-0.133-1.993-0.264-2.996-0.371-1.579-0.164-3.172-0.295-4.776-0.391-0.535-0.035-1.075-0.059-1.614-0.086-1.835-0.086-3.674-0.15-5.54-0.15h-437.87l6.129 34.478h192.119c8.62 0 15.516 6.896 15.516 17.238 0 10.344-6.896 17.24-17.238 17.24zM229.28 137.697c-37.926 0-68.957 31.031-68.957 68.956s31.030 68.956 68.957 68.956c37.925 0 68.954-31.031 68.954-68.956s-31.027-68.956-68.954-68.956zM817.132 137.697c-37.925 0-68.956 31.031-68.956 68.956s31.031 68.956 68.956 68.956c37.925 0 68.956-31.031 68.956-68.956s-31.031-68.956-68.956-68.956zM989.522 223.894h-70.431c-8.274 48.757-50.944 86.196-101.96 86.196-0.272 0-0.541-0.018-0.815-0.020-0.305 0.002-0.604 0.020-0.909 0.020-51.716 0-93.090-37.925-101.71-86.196h-382.46c-5.818 34.306-28.672 62.986-59.486 76.984-0.682 0.311-1.36 0.633-2.050 0.932-0.434 0.184-0.874 0.354-1.313 0.535-1.116 0.463-2.236 0.913-3.373 1.335-0.309 0.115-0.621 0.221-0.932 0.334-1.264 0.457-2.533 0.891-3.82 1.298-0.279 0.090-0.557 0.172-0.838 0.256-1.309 0.403-2.63 0.782-3.963 1.133-0.295 0.076-0.59 0.154-0.887 0.227-1.311 0.332-2.63 0.639-3.959 0.92-0.336 0.072-0.67 0.143-1.006 0.211-1.282 0.258-2.578 0.487-3.881 0.696-0.385 0.063-0.772 0.129-1.159 0.188-1.255 0.188-2.521 0.342-3.793 0.485-0.43 0.047-0.858 0.104-1.29 0.15-1.272 0.125-2.552 0.215-3.836 0.295-0.424 0.025-0.844 0.066-1.27 0.086-1.69 0.082-3.394 0.131-5.108 0.131-1.716 0-3.418-0.049-5.11-0.131-0.424-0.020-0.844-0.061-1.27-0.086-1.284-0.080-2.564-0.17-3.836-0.295-0.432-0.043-0.86-0.102-1.29-0.15-1.272-0.143-2.537-0.299-3.793-0.485-0.387-0.059-0.77-0.125-1.159-0.188-1.303-0.211-2.595-0.44-3.881-0.696-0.338-0.070-0.67-0.139-1.006-0.211-1.329-0.281-2.648-0.588-3.958-0.92-0.295-0.074-0.592-0.15-0.887-0.227-1.333-0.352-2.655-0.729-3.964-1.135-0.279-0.084-0.557-0.166-0.836-0.256-1.287-0.408-2.56-0.844-3.822-1.3-0.309-0.111-0.622-0.217-0.929-0.332-1.137-0.424-2.261-0.874-3.378-1.337-0.434-0.18-0.875-0.348-1.307-0.532-0.693-0.299-1.374-0.621-2.059-0.936-30.808-14-53.659-42.678-59.477-76.98h-66.978l36.202 189.63h444.767c2.439 0 4.848 0.072 7.238 0.184 0.164 0.008 0.326 0.012 0.489 0.020 95.73 4.811 154.733 98.671 189.495 189.424h102.738c8.62 0 15.514-6.896 17.238-13.791l39.272-158.601h-75.475c-12.067 0-22.409 10.344-22.409 22.411v81.023c0 10.344-6.896 17.24-17.238 17.24-10.344 0-17.24-6.896-17.24-17.24v-81.023c0-31.031 25.86-56.889 56.889-56.889h91.367l75.854-29.307v-143.079h-0.004z" />
<glyph unicode="&#xe914;" glyph-name="smartphone" d="M298.7 913.1c-67.881 0-123.8-55.919-123.8-123.8v-682.7c0-67.882 55.919-123.7 123.8-123.7h426.6c67.882 0 123.8 55.818 123.8 123.7v682.7c0 67.882-55.918 123.8-123.8 123.8h-426.6zM298.7 836.3h426.6c26.377 0 47-20.624 47-47v-682.7c0-26.377-20.623-46.9-47-46.9h-426.6c-26.375 0-47 20.523-47 46.9v682.7c0 26.376 20.625 47 47 47zM512 230.4c-21.208 0-38.4-17.192-38.4-38.4v0c0-21.208 17.192-38.4 38.4-38.4v0h0.5c21.208 0 38.4 17.192 38.4 38.4v0c0 21.208-17.192 38.4-38.4 38.4v0h-0.5z" />
<glyph unicode="&#xe915;" glyph-name="twitter" d="M1000.794 770.433c-16.083-7.135-32.627-13.156-49.523-18.045 20.006 22.627 35.258 49.251 44.57 78.385 2.093 6.531-0.070 13.679-5.44 17.95-5.363 4.275-12.813 4.787-18.714 1.288-35.891-21.286-74.611-36.584-115.213-45.528-40.896 39.962-96.442 62.705-153.862 62.705-121.213 0-219.828-98.611-219.828-219.82 0-9.546 0.604-19.040 1.8-28.401-150.412 13.206-290.248 87.136-386.273 204.925-3.422 4.198-8.694 6.461-14.092 6.029-5.4-0.423-10.253-3.469-12.982-8.149-19.476-33.419-29.772-71.64-29.772-110.529 0-52.967 18.911-103.222 52.316-142.492-10.157 3.518-20.014 7.915-29.421 13.137-5.051 2.811-11.215 2.768-16.232-0.109-5.021-2.877-8.169-8.168-8.301-13.953-0.023-0.974-0.023-1.949-0.023-2.936 0-79.063 42.552-150.244 107.609-189.041-5.589 0.559-11.175 1.368-16.724 2.428-5.721 1.093-11.604-0.912-15.462-5.276-3.864-4.36-5.143-10.438-3.363-15.987 24.081-75.184 86.079-130.48 161.029-147.338-62.164-38.938-133.252-59.334-207.878-59.334-15.572 0-31.232 0.915-46.559 2.733-7.614 0.902-14.894-3.59-17.487-10.835s0.155-15.322 6.633-19.469c95.869-61.472 206.722-93.965 320.568-93.965 223.806 0 363.811 105.542 441.853 194.080 97.312 110.394 153.126 256.519 153.126 400.9 0 6.031-0.096 12.123-0.282 18.194 38.394 28.926 71.45 63.934 98.349 104.17 4.083 6.111 3.642 14.188-1.088 19.813-4.73 5.629-12.608 7.449-19.334 4.469z" />
<glyph unicode="&#xe916;" glyph-name="user" d="M193.497 297.165c39.208 39.209 92.385 61.235 147.832 61.235h341.336c55.444 0 108.621-22.026 147.83-61.235s61.235-92.385 61.235-147.83v-85.335c0-21.207-17.193-38.4-38.4-38.4s-38.4 17.193-38.4 38.4v85.335c0 35.077-13.937 68.721-38.743 93.527-24.801 24.801-58.445 38.738-93.522 38.738h-341.336c-35.079 0-68.722-13.937-93.527-38.738-24.805-24.806-38.74-58.45-38.74-93.527v-85.335c0-21.207-17.192-38.4-38.4-38.4s-38.4 17.193-38.4 38.4v85.335c0 55.444 22.027 108.621 61.234 147.83zM512.005 793.6c-73.050 0-132.268-59.218-132.268-132.266s59.218-132.267 132.268-132.267c73.047 0 132.265 59.218 132.265 132.267s-59.218 132.266-132.265 132.266zM302.938 661.334c0 115.464 93.602 209.066 209.068 209.066 115.461 0 209.065-93.602 209.065-209.066s-93.604-209.067-209.065-209.067c-115.465 0-209.068 93.602-209.068 209.067z" />
<glyph unicode="&#xe917;" glyph-name="video" d="M980.167 704c-8.904-0.239-17.079-3.17-23.793-8.003l0.127 0.087-298.667-213.333c-10.895-7.833-17.907-20.473-17.907-34.75s7.012-26.917 17.78-34.663l0.127-0.087 298.667-213.333c6.892-4.981 15.512-7.968 24.829-7.968 23.567 0 42.671 19.104 42.671 42.671 0 0.016 0 0.033 0 0.049v-0.003 426.667c0 0.003 0 0.008 0 0.012 0 23.567-19.104 42.671-42.671 42.671-0.409 0-0.816-0.006-1.222-0.017l0.060 0.001zM938.667 578.333v-260.667l-182.5 130.333 182.5 130.333zM128 789.333c-70.187 0-128-57.813-128-128v-426.667c0-70.188 57.814-128 128-128h469.333c70.187 0 128 57.813 128 128v426.667c0 70.186-57.812 128-128 128h-469.333zM128 704h469.333c24.071 0 42.667-18.596 42.667-42.667v-426.667c0-24.072-18.594-42.667-42.667-42.667h-469.333c-24.070 0-42.667 18.595-42.667 42.667v426.667c0 24.070 18.597 42.667 42.667 42.667z" />
<glyph unicode="&#xe918;" glyph-name="arrow-sm" horiz-adv-x="640" d="M0 57.174l390.826 390.826-390.826 391.68 120.32 120.32 512-512-512-512-120.32 121.174z" />
<glyph unicode="&#xe919;" glyph-name="arrow-md" horiz-adv-x="2688" d="M2605.261 402.746c24.986 24.993 24.986 65.516 0 90.509l-407.296 407.294c-24.998 24.994-65.523 24.994-90.509 0-24.998-24.994-24.998-65.516 0-90.509l362.035-362.039-362.035-362.039c-24.998-24.993-24.998-65.516 0-90.509 24.986-24.995 65.51-24.995 90.509 0l407.296 407.293zM0 384h2560v128h-2560v-128z" />
<glyph unicode="&#xe91a;" glyph-name="comment" d="M877.714 934.857c27.429 0 50.286-9.905 68.571-29.714 19.807-18.286 29.718-40.381 29.718-66.286v-585.143c0-27.425-9.911-51.050-29.718-70.857-18.286-18.286-41.143-27.429-68.571-27.429h-683.429l-194.286-194.282v877.711c0 25.905 9.143 48 27.429 66.286 19.809 19.809 43.429 29.714 70.857 29.714h779.429zM779.425 349.714v98.286h-585.139v-98.286h585.139zM779.425 496v98.286h-585.139v-98.286h585.139zM779.425 642.286v98.286h-585.139v-98.286h585.139z" />
<glyph unicode="&#xe91b;" glyph-name="date" horiz-adv-x="878" d="M683.429 374.857v-244.575h-244.571v244.575h244.571zM633.143 912h98.286v-98.286h47.996c27.429 0 50.293-9.905 68.579-29.714 19.807-18.286 29.711-41.143 29.711-68.571v-681.139c0-27.429-9.904-51.054-29.711-70.861-18.286-18.286-41.15-27.429-68.579-27.429h-681.139c-27.429 0-51.048 9.143-70.857 27.429-18.286 19.807-27.429 43.432-27.429 70.861v681.139c0 27.429 9.143 50.286 27.429 68.571 19.809 19.809 43.429 29.714 70.857 29.714h48v98.286h98.286v-98.286h388.571v98.286zM779.425 34.289v534.853h-681.139v-534.853h681.139z" />
<glyph unicode="&#xe91c;" glyph-name="eye" horiz-adv-x="1536" d="M294.4 816c136.533 96 289.067 144 457.6 144s320.005-48 454.395-144c136.54-93.867 234.67-216.533 294.4-368-59.73-151.467-157.86-275.2-294.4-371.2-134.39-93.867-285.862-140.8-454.395-140.8s-321.067 46.933-457.6 140.8c-136.533 96-234.667 219.733-294.4 371.2 59.733 151.467 157.867 274.133 294.4 368zM508.8 204.8c68.267-66.133 149.333-99.2 243.2-99.2s173.867 33.067 240 99.2c66.13 68.267 99.195 149.333 99.195 243.2s-33.065 173.867-99.195 240c-66.133 68.267-146.133 102.4-240 102.4s-174.933-34.133-243.2-102.4c-66.133-66.133-99.2-146.133-99.2-240s33.067-174.933 99.2-243.2zM604.8 592c40.533 40.533 88.533 60.8 144 60.8 57.6 0 106.667-20.267 147.2-60.8 40.533-38.4 60.8-86.4 60.8-144s-20.267-106.667-60.8-147.2c-40.533-38.4-89.6-57.6-147.2-57.6-55.467 0-103.467 19.2-144 57.6-38.4 40.533-57.6 89.6-57.6 147.2s19.2 105.6 57.6 144z" />
<glyph unicode="&#xe91d;" glyph-name="reply" horiz-adv-x="1117" d="M433.455 641.273c104.727-15.515 197.818-45.575 279.273-90.182 83.394-42.666 151.273-96 203.636-160 52.359-64 94.064-131.878 125.091-203.636 32.973-69.818 58.182-146.424 75.636-229.82-151.273 211.396-379.152 317.093-683.636 317.093v-253.093l-433.455 433.456 433.455 433.455v-247.273z" />
<glyph unicode="&#xe91e;" glyph-name="user2" horiz-adv-x="939" d="M616 514.667c-44.444-44.444-98.667-66.667-162.667-66.667-62.223 0-115.556 22.223-160 66.667s-66.667 97.777-66.667 160c0 64 22.223 118.223 66.667 162.667s97.777 66.667 160 66.667c64 0 118.223-22.222 162.667-66.667s66.667-98.667 66.667-162.667c0-62.223-22.223-115.556-66.667-160zM269.333 309.333c67.556 16 128.889 24 184 24 56.889 0 119.111-8 186.667-24s128.889-42.667 184-80c56.887-35.556 85.329-76.444 85.329-122.667v-114.671h-909.329v114.671c0 46.223 27.556 87.111 82.667 122.667 56.889 37.333 119.111 64 186.667 80z" />
<glyph unicode="&#xe91f;" glyph-name="star" horiz-adv-x="1071" d="M822.845 5.252l-283.101 148.434-282.77-149.062 53.686 315.113-229.148 222.868 316.28 46.317 141.149 286.802 141.786-286.488 316.382-45.614-228.652-223.376 54.386-314.993z" />
<glyph unicode="&#xe920;" glyph-name="step1" d="M960 335.999h-240.001v185.377l260.112 260.112c17.986 17.984 27.89 41.888 27.89 67.312 0 52.496-42.705 95.2-95.201 95.2-25.424 0-49.328-9.904-67.312-27.872l-125.489-125.488v41.36c0 44.112-35.887 80-79.999 80h-114.944c-6.623 18.576-24.224 32-45.056 32h-224c-20.832 0-38.433-13.424-45.056-32h-114.944c-44.112 0-80-35.888-80-80v-672c0-44.112 35.888-80.001 80-80.001h431.999v-79.999c0-26.464 21.537-48.001 48.001-48.001h384c26.464 0 48.001 21.537 48.001 48.001v288c0 26.464-21.537 47.999-48.001 47.999zM783.999 271.999v-31.998h-31.998v31.998h-32.002v-31.998h-31.998v64h159.998v-64h-31.998v31.998h-32.002zM527.999 288v-111.999h-415.999v639.999h98.944c6.623-18.576 24.224-32 45.056-32h224c20.832 0 38.433 13.424 45.056 32h98.945v-121.376l-173.761-173.761-47.489-126.624c-1.823-4.848-2.753-9.937-2.753-15.151 0-23.761 19.329-43.090 43.090-43.090 5.2 0 10.303 0.93 15.118 2.736l126.64 47.505 39.154 39.135v-89.377h-48.001c-26.464 0-48.001-21.535-48.001-47.999zM576 422.623l-33.376 33.376 265.376 265.376 33.376-33.374-265.376-265.378zM470.256 483.119l76.863-76.863-100.159-37.569c-6.783-2.511-14.959 2.961-14.959 10.402 0 1.343 0.24 2.64 0.702 3.871l37.552 100.159zM774.623 800l25.377 25.376 89.377-89.376-25.377-25.377-89.377 89.377zM785.375 743.999l-265.376-265.376-33.376 33.376 265.378 265.376 33.374-33.376zM688.001 335.999h-32.002v121.377l32.002 32v-153.377zM868.112 893.488c11.936 11.936 27.808 18.512 44.687 18.512 34.849 0 63.199-28.352 63.199-63.2 0-16.88-6.574-32.752-18.512-44.688l-45.488-45.488-89.375 89.376 45.488 45.488zM688.001 832v-73.36l-32.002-31.999v89.359c0 17.648-14.35 32-31.998 32h-96.002v32h112.001c26.464 0 48.001-21.536 48.001-48zM240.001 896c0 8.816 7.168 16 15.999 16h224c8.831 0 16.001-7.184 16.001-16v-64c0-8.816-7.17-16-16.001-16h-224c-8.831 0-15.999 7.184-15.999 16v64zM96 112.001c-26.464 0-48 21.535-48 47.999v672c0 26.464 21.536 48 48 48h111.999v-32h-95.999c-17.648 0-32-14.352-32-32v-639.999c0-17.65 14.352-32.002 32-32.002h415.999v-31.998h-431.999zM975.999 0c0-8.833-7.166-15.999-15.999-15.999h-384c-8.831 0-15.999 7.166-15.999 15.999v288c0 8.831 7.168 16.001 15.999 16.001h79.999v-96.002h224.002v96.002h79.999c8.833 0 15.999-7.17 15.999-16.001v-288zM783.999 48.001h32.002v-32.002h-32.002v32.002zM911.999 48.001h32.002v-32.002h-32.002v32.002zM847.999 48.001h32.002v-32.002h-32.002v32.002zM783.999 112.001h160.002v-32.002h-160.002v32.002zM324.688 779.32l-27.312-27.313h-153.376v-160h160.001v121.377l43.311 43.312-22.624 22.624zM272.001 624.007h-96.001v96h89.376l-41.376-41.376-20.688 20.689-22.624-22.624 43.312-43.311 48.001 47.999v-57.377zM144 399.999h160.001v160.002h-160.001v-160.002zM176 527.999h95.999v-95.998h-95.999v95.998zM144 207.999h160.001v160.002h-160.001v-160.002zM176 335.999h95.999v-95.998h-95.999v95.998zM368.001 752.001h128v-32.002h-128v32.002zM368.001 688.001h128v-32.002h-128v32.002zM368.001 624.001h128v-32.002h-128v32.002zM368.001 304.001h128v-32.002h-128v32.002zM368.001 240.001h128v-32.002h-128v32.002z" />
<glyph unicode="&#xe921;" glyph-name="step2" d="M977.039 596.404h-100.733l-50.924 199.696c-6.398 25.092-32.018 40.294-57.104 33.9l-116.099-29.604c-7.83-1.996-12.558-9.964-10.564-17.794 1.999-7.83 9.964-12.556 17.795-10.564l116.097 29.604c9.462 2.406 19.108-3.32 21.52-12.774l5.64-22.122-767.209-195.632-5.64 22.12c-1.168 4.579-0.482 9.343 1.93 13.406 2.414 4.063 6.266 6.947 10.846 8.114l527.717 134.566c7.83 1.995 12.56 9.964 10.564 17.794-1.999 7.83-9.959 12.556-17.793 10.564l-527.72-134.565c-25.092-6.398-40.3-32.016-33.902-57.106l108.216-424.382c5.41-21.215 24.556-35.365 45.51-35.363 3.828 0 7.72 0.473 11.596 1.462l6.928 1.765v-18.006c0-25.893 21.066-46.961 46.961-46.961h756.367c25.895 0 46.961 21.068 46.961 46.961v437.961c0 25.895-21.066 46.961-46.961 46.961zM173.713 159.689l-14.158-3.611c-9.454-2.41-19.108 3.322-21.52 12.775l-66.24 259.766 101.918 25.989v-294.92zM173.713 549.446v-64.637l-109.148-27.832-21.874 85.785 141.374 36.049c-6.468-8.049-10.352-18.26-10.352-29.364zM846.107 596.406h-116.314l109.212 27.849 7.102-27.849zM809.9 738.394l21.875-85.785-220.414-56.205h-358.289l556.829 141.99zM977.039 93.788h-756.365c-9.759 0-17.699 7.936-17.699 17.695v437.961c0 9.759 7.938 17.697 17.699 17.697h756.365c9.759 0 17.697-7.938 17.697-17.697v-437.961c0-9.759-7.938-17.695-17.697-17.695zM582.687 236.22h-318.814c-8.081 0-14.633-6.55-14.633-14.633 0-8.081 6.552-14.631 14.633-14.631h318.814c8.079 0 14.633 6.55 14.633 14.631s-6.552 14.633-14.633 14.633zM826.52 493.5c-21.017 0-40.464-6.785-56.316-18.25-16.335 11.833-35.928 18.25-56.375 18.25-53.117 0-96.328-43.213-96.328-96.328 0.004-53.115 43.215-96.326 96.33-96.326 20.447 0 40.038 6.414 56.373 18.25 15.852-11.467 35.301-18.25 56.316-18.25 53.115 0 96.326 43.211 96.326 96.326s-43.211 96.328-96.326 96.328zM730.311 392.606c0.016-0.375 0.043-0.75 0.066-1.126 0.070-1.225 0.164-2.447 0.281-3.666 0.027-0.283 0.053-0.567 0.084-0.852 1.784-17.111 8.024-33.186 18.207-46.916-10.48-6.468-22.569-9.933-35.117-9.933-36.981 0-67.064 30.083-67.064 67.062 0.002 36.975 30.085 67.062 67.064 67.062 12.548 0 24.637-3.467 35.117-9.935-10.181-13.73-16.423-29.805-18.207-46.916-0.031-0.285-0.057-0.565-0.084-0.85-0.117-1.219-0.209-2.439-0.281-3.666-0.023-0.377-0.049-0.748-0.066-1.124-0.072-1.518-0.117-3.039-0.117-4.569s0.045-3.054 0.117-4.571zM826.524 330.111c-18.309 0-34.922 7.381-47.036 19.317-0.25 0.246-0.496 0.494-0.741 0.745-0.559 0.567-1.112 1.141-1.651 1.729-0.147 0.162-0.293 0.326-0.442 0.492-0.631 0.702-1.255 1.415-1.858 2.144-0.004 0.004-0.006 0.008-0.010 0.012-9.57 11.596-15.325 26.452-15.325 42.627-0.002 16.171 5.755 31.027 15.327 42.625 0.002 0.002 0.004 0.004 0.006 0.008 0.604 0.731 1.231 1.444 1.864 2.15 0.147 0.162 0.291 0.324 0.438 0.483 0.541 0.59 1.094 1.165 1.655 1.735 0.244 0.248 0.487 0.494 0.735 0.737 12.114 11.936 28.729 19.321 47.038 19.321 36.979 0 67.062-30.085 67.062-67.064s-30.083-67.062-67.062-67.062zM368.14 483.99h-64.172c-30.177 0-54.729-24.549-54.729-54.727v-64.172c-0.002-30.179 24.551-54.729 54.729-54.729h64.172c30.175 0 54.727 24.549 54.727 54.729v64.172c0 30.175-24.549 54.727-54.727 54.727zM393.601 389.317h-31.214c-8.079 0-14.631-6.552-14.631-14.633s6.55-14.631 14.631-14.631h30.71c-2.345-11.637-12.644-20.429-24.959-20.429h-64.172c-12.319 0-22.616 8.79-24.961 20.429h30.71c8.081 0 14.633 6.55 14.633 14.631s-6.55 14.633-14.633 14.633h-31.214v12.679h31.214c8.081 0 14.633 6.55 14.633 14.633 0 8.079-6.55 14.631-14.633 14.631h-31.113c1.024 13.109 11.997 23.468 25.364 23.468h64.172c13.367 0 24.338-10.359 25.364-23.468h-31.115c-8.079 0-14.631-6.55-14.631-14.631s6.55-14.633 14.631-14.633h31.214v-12.679zM926.237 171.839h-509.465c-8.079 0-14.633-6.55-14.633-14.631 0-8.083 6.552-14.633 14.633-14.633h509.465c8.079 0 14.633 6.55 14.633 14.633 0 8.081-6.552 14.631-14.633 14.631zM323.498 171.839h-59.625c-8.081 0-14.633-6.55-14.633-14.631 0-8.083 6.55-14.633 14.633-14.633h59.625c8.079 0 14.633 6.55 14.633 14.633 0 8.081-6.554 14.631-14.633 14.631z" />
<glyph unicode="&#xe922;" glyph-name="step3" d="M969.791 485.48c0 191.922-115.616 364.959-292.938 438.405-177.314 73.446-381.415 32.853-517.135-102.868-162.842-162.981-185.126-419.374-52.82-607.995 132.298-188.623 380.951-254.986 589.647-157.362l-4.041-95.853c0-0.236-0.008-0.471-0.008-0.707-0.025-9.001 5.186-17.187 13.341-20.992 8.139-3.764 17.732-2.382 24.463 3.537l89.639 77.234 89.674-77.259c6.724-5.902 16.308-7.285 24.431-3.512 8.153 3.805 13.365 11.999 13.341 21 0 0.227 0 0.463-0.008 0.698l-8.593 203.964c74.478 63.412 85.852 174.207 25.821 251.433 3.447 23.259 5.179 46.756 5.188 70.275zM495.264 44.253c-243.294 0-441.226 197.923-441.226 441.227 0 243.294 197.932 441.226 441.226 441.226 243.296 0 441.227-197.932 441.227-441.226 0-13.302-0.627-26.618-1.798-39.846-32.43 26.251-72.901 40.561-114.622 40.52-16.935-0.033-33.788-2.39-50.080-7v133.446c-0.057 7.244-4.766 13.642-11.676 15.845l-241.213 77.779c-3.334 1.065-6.918 1.065-10.252 0l-241.312-77.779c-6.918-2.204-11.635-8.593-11.698-15.845v-329.165c0.055-7.252 4.764-13.642 11.674-15.845l241.213-77.779c3.342-1.073 6.937-1.073 10.269 0l133.736 43.123c11.123-26.692 28.375-50.389 50.366-69.169l-2.951-70.171c-62.714-32.414-132.282-49.34-202.883-49.34zM636.92 303.004c-0.025-12.861 1.309-25.69 3.975-38.275l-120.656-38.894v294.181l216.451 69.722v-123.754c-61.528-30.949-100.192-94.112-99.77-162.98zM287.138 589.73l199.801-64.348v-294.173l-199.801 64.348v294.173zM511.914 552.317l-186.915 60.283 186.915 60.275 186.915-60.275-186.915-60.283zM913.084-17.42l-77.705 66.959c-8.667 8.186-22.211 8.186-30.878 0l-77.705-66.959 6.699 158.996c53.989-28.967 118.899-28.967 172.89 0l6.699-158.996zM819.939 153.154c-82.762 0-149.85 67.088-149.85 149.85 0 82.764 67.088 149.85 149.85 149.85 82.764 0 149.852-67.086 149.852-149.85-0.090-82.721-67.129-149.76-149.852-149.85zM894.132 375.314l-98.363-98.355-49.983 50.471c-6.486 6.423-16.941 6.423-23.429 0-6.488-6.431-6.595-16.878-0.236-23.431l61.762-62.851c3.066-3.285 7.301-5.237 11.788-5.423h0.025c4.481 0.178 8.716 2.105 11.788 5.366l110.193 110.436c6.578 6.504 6.627 17.097 0.123 23.667-6.496 6.576-17.097 6.625-23.667 0.121z" />
<glyph unicode="&#xe923;" glyph-name="info" d="M432 191.251v287.999h96.75v-287.999h-96.75zM139.5 769.5c94.5 94.5 207.75 141.75 339.75 141.75 133.5 0 246.753-47.25 339.752-141.75 94.496-93 141.747-205.5 141.747-337.5s-47.251-245.248-141.747-339.75c-92.998-92.998-206.252-139.501-339.752-139.501-132 0-245.25 46.502-339.75 139.501-93 94.502-139.5 207.75-139.5 339.75s46.5 244.5 139.5 337.5zM209.25 159.75c75-75.002 165-112.499 270-112.499 106.5 0 197.249 37.498 272.251 112.499s112.499 165.75 112.499 272.25c0 106.5-37.498 197.25-112.499 272.25s-165.751 112.5-272.251 112.5c-105 0-195-37.5-270-112.5s-112.5-165.75-112.5-272.25c0-106.5 37.5-197.248 112.5-272.25zM432 576v96.75h96.75v-96.75h-96.75z" />
<glyph unicode="&#xe924;" glyph-name="google" horiz-adv-x="1536" d="M493.12 558.105c256.525 0 409.963 0 460.309 0 16.777-88.705 13.184-175.013-10.795-258.922-23.97-81.513-65.929-149.839-125.862-204.983-55.141-50.347-122.268-85.103-201.383-104.286-86.307-19.174-170.217-17.98-251.73 3.601-64.73 16.777-123.467 46.746-176.211 89.899-57.538 45.552-101.891 99.494-133.057 161.827-52.743 100.692-67.128 207.377-43.154 320.056 7.192 43.154 21.577 83.91 43.154 122.269 57.538 119.871 149.839 201.383 276.902 244.537 110.281 38.359 220.564 37.16 330.845-3.596 57.538-21.577 110.281-53.942 158.23-97.095-4.795-7.193-13.186-16.783-25.173-28.769-11.987-9.59-19.18-16.783-21.577-21.577-9.59-7.192-25.173-21.577-46.75-43.153-19.18-19.18-33.564-34.763-43.154-46.75-31.166 31.166-67.127 52.743-107.884 64.73-47.948 14.385-95.897 15.584-143.845 3.596-57.539-11.987-106.685-38.359-147.442-79.115-31.166-33.564-55.141-73.121-71.922-118.672-21.577-62.333-21.577-125.865 0-190.595 21.577-62.333 59.936-112.679 115.076-151.037 33.564-23.974 69.525-39.558 107.884-46.75 35.961-7.193 75.518-7.193 118.672 0 40.756 7.192 76.718 21.577 107.884 43.153 55.141 35.962 87.506 86.308 97.096 151.038-88.705 0-177.41 0-266.115 0 0 14.385 0 45.551 0 93.5 0 50.346 0 82.711 0 97.096zM1536 547.316v-122.269h-169.020v-165.422h-122.266v165.422h-169.020v122.269h169.020v169.018h122.266v-169.018h169.020z" />
</font>
</defs>
</svg>
